<?xml version="1.0" encoding="utf-8"?>
<!-- Generator: Adobe Illustrator 16.0.0, SVG Export Plug-In . SVG Version: 6.00 Build 0)  -->
<!DOCTYPE svg PUBLIC "-//W3C//DTD SVG 1.1//EN" "http://www.w3.org/Graphics/SVG/1.1/DTD/svg11.dtd">
<svg version="1.1" id="Layer_1" xmlns="http://www.w3.org/2000/svg" xmlns:xlink="http://www.w3.org/1999/xlink" x="0px" y="0px"
	 width="209.315px" height="160.371px" viewBox="0 0 209.315 160.371" enable-background="new 0 0 209.315 160.371"
	 xml:space="preserve">
<g opacity="0.8">
	<g>
		<path d="M134.127,53.669c0,0,1.242,1.464,0.788,2.587c-0.455,1.125-1.204,4.98-2.476,6.75c-1.577,2.197-1.148,2.247-0.345,2.706
			c0.808,0.461,0.788,1.007,1.641,1.183c0.813,0.169,0.767-0.118,0.767-0.118s0.519,0.243,1.012-0.468
			c0.491-0.708,0.523-1.792,0.913-1.925c1.329-0.451-0.628,2.194-0.628,2.194l1.194,0.593c0,0-0.136,0.623,0.657,0.412
			c0.785-0.209,0.74-0.053,1.164-0.688c0.636-0.953,0.676-1.905,1.163-2.698c1.27-2.063,2.011-2.698,3.122-3.333
			c0.873-0.499,1.692-1.746,1.692-1.746s0.068,2.321-0.843,6.011c-0.813,3.3-2.201,5.792-2.201,5.792s-0.438,0.364-1.152,1.267
			c-0.841,1.062-3.337,4.714-3.204,6.588c0.134,1.872,0.205,2.381-0.55,2.654c-0.758,0.267-4.354,1.871-5.551,2.402
			c-1.196,0.532-2.46,0.609-6.405,0.894c-5.079,0.366-4.705,0.29-5.071,2.559c-0.368,2.266,1.207,3.118,1.207,3.118
			s2.28,3.966,3.375,6.139c1.094,2.173,0.654,2.438,2.069,3.106c1.413,0.672,4.213,2.239,4.213,2.239s1.422-0.509,2.508-0.149
			c1.095,0.358,2.463,1.356,2.953,1.084c0.489-0.271,0.027-1.717-0.135-3.369c-0.162-1.648-0.555-1.807-0.897-1.92
			c-1.317-0.438-3.681,0.574-3.681,0.574s-4.082-2.238-4.569-2.992c-0.486-0.751-2.261-5.576-1.827-5.732
			c0.436-0.155,5.825,0.27,8.694,1.43c2.867,1.158,5.279,2.184,5.792,1.862c0.513-0.318,2.071-0.334,4.286-1.317
			c2.049-0.905,2.915-1.629,3.671-1.681c0.376-0.024,5.584,2.839,9.296,3.802c2.165,0.568,3.469,0.62,3.469,0.62
			s-1.248,0.758,3.253,1.31c5.513,0.674,3.8-0.529,3.8-0.529s5.478,0.739,8.515,2.001c3.037,1.263,4.269,2.1,7.918,3.29
			c3.246,1.059,3.531,1.11,4.562,1.35c1.273,0.294-4.652,7.547-4.835,8.301c-0.178,0.754,1.103,4.057,1.596,4.47
			c0.492,0.413,1.076,0.307,1.076,0.307s2.272,1.754,2.188,1.396c-0.381-1.579,1.062-3.797,0.844-4.406
			c-0.218-0.615-1.859-0.347-1.859-0.347s-0.608-0.672-0.472-1.446c0.14-0.776,1.764-3.029,3.686-4.625
			c2.64-2.191,3.668-3.063,3.649-3.968c-0.01-0.542-0.013-1.219-0.954-1.685c-2.515-1.246-4.778-1.785-4.204-2.888
			c0.573-1.104,1.584-1.357,2.658-3.189c1.071-1.83,2.121-5.648,0.928-8.336c-1.122-2.529-2.458-3.978-4.203-4.922
			c-1.576-0.85-3.3-1.357-3.958-1.517c-0.939-0.227-1.579-0.301-2.05-0.396c-0.794-0.159-1.326-0.108-1.349-0.278
			c-0.119-0.913,1.854-2.011,0.771-2.182c-2.208-0.349-7.387,0.783-11.047,0.238c-3.656-0.544-5.271-1.155-7.609-2.877
			c-2.337-1.719-2.79-0.18-2.79-0.18s-1.175-0.303-1.153-0.623c0.027-0.321,0.513-1.185,0.137-3.398
			c-0.373-2.215-1.02-2.633-0.504-3.547c1.173-2.08-1.066-3.38-1.959-4.821c-0.896-1.444,1.332-0.633-0.438-3.263
			c-0.97-1.44,1.433-3.221-3.064-5.498c-1.619-0.82,0.205-2.721-4.165-4.474c-1.808-0.725-5.196-1.264-5.719-1.181
			c-0.521,0.083-0.906-2.546-0.49-3.467c0.405-0.899-0.588-0.771-1.535,0.635c-0.946,1.41-1.588,3.534-2.183,3.709
			C138.687,47.242,134.433,49.728,134.127,53.669z"/>
		<path d="M191.172,84.89c1.017-0.34,2.295-0.588,3.322,0.258c4.334,3.572-0.412,11.317,4.839,14.071
			c0.105,0.055,0.017-0.184,0.13-0.132c-1.456-1.655-1.511-2.906-1.211-4.601c0,0,0.664,5.745,6.425,6.954
			c0.102,0.021-0.05-0.162,0.056-0.144c-1.87-0.808-3.574-3.338-3.393-4.61c0.75,2.616,5.039,4.796,7.939,4.278
			c0.143-0.025-0.192-0.161-0.055-0.199c-6.608-0.536-5.951-9.037-8.851-14.308c-3.046-5.534-6.883-4.597-9.179-3.6
			C191.557,83.903,191.138,85.16,191.172,84.89z"/>
		<path d="M132.275,85.773c0.21-0.181,0.563-0.389,1.006-0.611c3.051,0.86,3.364,4.586,2.546,3.961
			c-0.724,0.217-1.256,0.944-1.253,1.25c0.007,0.811,1.981,2.583,2.936,3.632c1.891,2.075,3.897,4.341,2.887,4.436
			c0.688,0.098,1.49-0.11,2.054-0.141c0.541-0.03,0.897,0.189,1.164,0.667c0.265,0.478,1.258,2.646,1.471,3.284
			s0.289,1.967-0.53,1.57c-0.724-0.35-4.127-1.655-4.484-2.688c-0.783-0.432-2.075-0.406-2.552-1.041
			c-0.951-1.269-1.697-2.73-2.706-4.749c-1.01-2.02-2.336-2.603-3.452-3.665c-1.115-1.062-0.797-2.443-0.69-3.665
			C130.775,86.79,131.383,86.538,132.275,85.773z"/>
		<path d="M166.86,93.267c2.911,1.161,5.021,2.022,7.886,4.299c2.548,2.023,2.785,2.165,3.628,2.72
			c1.039,0.687-6.663,5.196-7.076,5.811c-0.41,0.615-0.362,3.989-0.06,4.522c0.303,0.531,0.859,0.632,0.859,0.632
			s1.163,2.098,1.489,1.974c1.007-0.385,2.211-3.039,2.219-3.658c0.009-0.62-1.192-1.073-1.192-1.073s-0.674-0.655-0.295-1.301
			c0.382-0.646,2.748-1.964,4.993-2.75c3.086-1.08,4.13-1.676,4.413-2.489c0.17-0.488,0.559-0.845,0.341-1.821
			c-0.777-3.504,0.135-3.182,1.013-3.977c0.879-0.796-2.577-0.687-1.01-1.967"/>
		<path fill="#ED1C24" d="M137.729,53.175c0.145,0.655,0.218,1.455,0.145,2.473c0.581-0.218,2.035-2.241,2.299-3.458
			C139.221,52.984,137.583,52.521,137.729,53.175z"/>
	</g>
	<g>
		<g>
			<g>
				<path d="M162.625,44.836c0.253,0.31,1.133,0.939,2.162,2.242c1.378,1.747-0.057,4.023-0.057,4.023s-0.137-0.759-1.897-2.487
					c-1.354-1.33-0.783-2.891-0.33-3.411C162.617,45.068,162.528,44.721,162.625,44.836z"/>
				<path d="M162.625,49.28c0.253,0.31,1.133,0.939,2.162,2.241c1.378,1.747-0.057,4.024-0.057,4.024s-0.137-0.76-1.897-2.487
					c-1.354-1.33-0.783-2.892-0.33-3.412C162.617,49.511,162.528,49.165,162.625,49.28z"/>
				<path d="M162.625,53.724c0.253,0.31,1.133,0.939,2.162,2.242c1.378,1.747-0.057,4.024-0.057,4.024s-0.137-0.76-1.897-2.487
					c-1.354-1.33-0.783-2.891-0.33-3.411C162.617,53.956,162.528,53.608,162.625,53.724z"/>
				<path d="M162.625,58.168c0.253,0.309,1.133,0.939,2.162,2.241c1.378,1.748-0.057,4.024-0.057,4.024s-0.137-0.76-1.897-2.487
					c-1.354-1.33-0.783-2.892-0.33-3.412C162.617,58.399,162.528,58.052,162.625,58.168z"/>
				<path d="M162.625,62.611c0.253,0.309,1.133,0.939,2.162,2.242c1.378,1.747-0.057,4.024-0.057,4.024s-0.137-0.76-1.897-2.487
					c-1.354-1.33-0.783-2.891-0.33-3.411C162.617,62.843,162.528,62.496,162.625,62.611z"/>
				<path d="M162.625,67.055c0.253,0.31,1.133,0.939,2.162,2.241c1.378,1.747-0.057,4.024-0.057,4.024s-0.137-0.759-1.897-2.487
					c-1.354-1.33-0.783-2.892-0.33-3.412C162.617,67.286,162.528,66.939,162.625,67.055z"/>
				<path d="M162.625,71.499c0.253,0.31,1.133,0.939,2.162,2.242c1.378,1.747-0.057,4.024-0.057,4.024s-0.137-0.76-1.897-2.487
					c-1.354-1.33-0.783-2.891-0.33-3.412C162.617,71.729,162.528,71.383,162.625,71.499z"/>
				<path d="M162.625,75.942c0.253,0.31,1.133,0.939,2.162,2.241c1.378,1.747-0.057,4.024-0.057,4.024s-0.137-0.761-1.897-2.487
					c-1.354-1.33-0.783-2.891-0.33-3.411C162.617,76.174,162.528,75.827,162.625,75.942z"/>
				<path d="M162.625,80.387c0.253,0.309,1.133,0.938,2.162,2.241c1.378,1.746-0.057,4.023-0.057,4.023s-0.137-0.761-1.897-2.487
					c-1.354-1.329-0.783-2.892-0.33-3.411C162.617,80.617,162.528,80.271,162.625,80.387z"/>
				<path d="M162.625,84.83c0.253,0.309,1.133,0.938,2.162,2.241c1.378,1.747-0.057,4.023-0.057,4.023s-0.137-0.759-1.897-2.487
					c-1.354-1.328-0.783-2.892-0.33-3.411C162.617,85.061,162.528,84.715,162.625,84.83z"/>
				<path d="M162.625,89.273c0.253,0.31,1.133,0.939,2.162,2.241c1.378,1.747-0.057,4.023-0.057,4.023s-0.137-0.759-1.897-2.486
					c-1.354-1.329-0.783-2.892-0.33-3.41C162.617,89.504,162.528,89.158,162.625,89.273z"/>
				<path d="M162.625,93.718c0.253,0.309,1.133,0.938,2.162,2.24c1.378,1.747-0.057,4.024-0.057,4.024s-0.137-0.76-1.897-2.486
					c-1.354-1.33-0.783-2.892-0.33-3.411C162.617,93.948,162.528,93.602,162.625,93.718z"/>
				<path d="M162.625,98.161c0.253,0.309,1.133,0.938,2.162,2.241c1.378,1.746-0.057,4.024-0.057,4.024s-0.137-0.761-1.897-2.487
					c-1.354-1.33-0.783-2.892-0.33-3.411C162.617,98.393,162.528,98.045,162.625,98.161z"/>
				<path d="M162.625,102.604c0.253,0.31,1.133,0.938,2.162,2.241c1.378,1.748-0.057,4.024-0.057,4.024s-0.137-0.761-1.897-2.487
					c-1.354-1.33-0.783-2.892-0.33-3.411C162.617,102.836,162.528,102.489,162.625,102.604z"/>
				<path d="M162.625,107.048c0.253,0.31,1.133,0.938,2.162,2.241c1.378,1.748-0.057,4.024-0.057,4.024s-0.137-0.76-1.897-2.487
					c-1.354-1.329-0.783-2.891-0.33-3.411C162.617,107.279,162.528,106.933,162.625,107.048z"/>
				<path d="M162.625,111.492c0.253,0.309,1.133,0.938,2.162,2.241c1.378,1.747-0.057,4.023-0.057,4.023s-0.137-0.76-1.897-2.487
					c-1.354-1.328-0.783-2.891-0.33-3.41C162.617,111.723,162.528,111.376,162.625,111.492z"/>
				<path d="M162.625,115.937c0.253,0.308,1.133,0.938,2.162,2.24c1.378,1.747-0.057,4.024-0.057,4.024s-0.137-0.761-1.897-2.487
					c-1.354-1.329-0.783-2.892-0.33-3.411C162.617,116.166,162.528,115.819,162.625,115.937z"/>
				<path d="M162.625,120.38c0.253,0.308,1.133,0.938,2.162,2.241c1.378,1.746-0.057,4.023-0.057,4.023s-0.137-0.761-1.897-2.487
					c-1.354-1.329-0.783-2.892-0.33-3.411C162.617,120.61,162.528,120.264,162.625,120.38z"/>
				<path d="M162.625,124.823c0.253,0.31,1.133,0.938,2.162,2.241c1.378,1.747-0.057,4.023-0.057,4.023s-0.137-0.759-1.897-2.486
					c-1.354-1.329-0.783-2.893-0.33-3.411C162.617,125.054,162.528,124.708,162.625,124.823z"/>
				<path d="M162.625,40.393c0.253,0.309,1.133,0.939,2.162,2.241c1.378,1.747-0.057,4.024-0.057,4.024s-0.137-0.76-1.897-2.487
					c-1.354-1.33-0.783-2.891-0.33-3.412C162.617,40.624,162.528,40.277,162.625,40.393z"/>
				<path d="M162.625,35.949c0.253,0.31,1.133,0.939,2.162,2.241c1.378,1.748-0.057,4.024-0.057,4.024s-0.137-0.759-1.897-2.486
					c-1.354-1.33-0.783-2.892-0.33-3.412C162.617,36.181,162.528,35.833,162.625,35.949z"/>
			</g>
		</g>
		<path d="M161.143,31.781c0,1.38,1.116,2.494,2.495,2.494c1.38,0,2.499-1.114,2.499-2.494c0-1.382-1.119-2.499-2.499-2.499
			C162.259,29.283,161.143,30.399,161.143,31.781z"/>
	</g>
</g>
<g>
	<g>
		<path d="M118.44,38.415c0,0-1.956,2.307-1.24,4.076c0.717,1.772,1.896,7.845,3.898,10.633c2.485,3.461,1.811,3.54,0.543,4.262
			c-1.271,0.726-1.239,1.586-2.584,1.865c-1.28,0.265-1.207-0.187-1.207-0.187s-0.816,0.383-1.594-0.738
			c-0.773-1.116-0.824-2.823-1.438-3.031c-2.095-0.71,0.988,3.456,0.988,3.456l-1.882,0.935c0,0,0.215,0.981-1.035,0.648
			c-1.237-0.33-1.166-0.083-1.833-1.083c-1.002-1.502-1.064-3.001-1.833-4.25c-2-3.25-3.167-4.25-4.917-5.25
			c-1.376-0.786-2.667-2.75-2.667-2.75s-0.106,3.657,1.327,9.468c1.282,5.198,3.468,9.125,3.468,9.125s0.689,0.573,1.815,1.995
			c1.324,1.672,5.256,7.426,5.047,10.378c-0.209,2.949-0.322,3.75,0.866,4.18c1.195,0.421,6.858,2.947,8.745,3.785
			c1.885,0.838,3.875,0.959,10.09,1.407c8.001,0.577,7.412,0.456,7.987,4.03c0.58,3.568-1.899,4.912-1.899,4.912
			s-3.594,6.248-5.317,9.669c-1.723,3.425-1.03,3.841-3.259,4.895c-2.228,1.058-6.638,3.526-6.638,3.526s-2.239-0.801-3.951-0.235
			c-1.725,0.565-3.879,2.138-4.65,1.709s-0.044-2.704,0.212-5.309c0.255-2.597,0.873-2.845,1.414-3.024
			c2.075-0.689,5.797,0.905,5.797,0.905s6.43-3.525,7.199-4.713c0.766-1.185,3.561-8.785,2.877-9.03
			c-0.686-0.245-9.176,0.424-13.695,2.252c-4.517,1.824-8.316,3.439-9.123,2.934c-0.809-0.502-3.264-0.526-6.753-2.075
			c-3.227-1.427-4.592-2.566-5.782-2.648c-0.594-0.038-8.797,4.473-14.644,5.989c-3.413,0.896-5.464,0.978-5.464,0.978
			s1.966,1.193-5.125,2.062c-8.684,1.063-5.985-0.834-5.985-0.834s-8.628,1.166-13.413,3.154c-4.785,1.988-6.724,3.307-12.474,5.182
			c-5.114,1.668-5.562,1.75-7.188,2.125c-2.006,0.463,7.33,11.889,7.617,13.076c0.28,1.189-1.735,6.392-2.513,7.042
			c-0.775,0.65-1.696,0.483-1.696,0.483s-3.579,2.762-3.444,2.199c0.599-2.488-1.675-5.98-1.329-6.942
			c0.342-0.967,2.927-0.546,2.927-0.546s0.958-1.059,0.742-2.277c-0.218-1.223-2.778-4.772-5.804-7.285
			c-4.158-3.452-5.779-4.826-5.75-6.25c0.018-0.854,0.022-1.92,1.505-2.654c3.96-1.963,7.526-2.812,6.622-4.549
			c-0.902-1.74-2.496-2.139-4.187-5.025c-1.688-2.881-3.341-8.896-1.462-13.13c1.769-3.984,3.871-6.267,6.622-7.753
			c2.481-1.34,5.196-2.14,6.233-2.39c1.481-0.358,2.486-0.475,3.229-0.624c1.25-0.25,2.09-0.17,2.125-0.438
			c0.188-1.438-2.922-3.167-1.214-3.438c3.478-0.549,11.636,1.233,17.401,0.375c5.76-0.857,8.303-1.819,11.986-4.533
			c3.682-2.708,4.395-0.283,4.395-0.283s1.853-0.478,1.819-0.98c-0.042-0.506-0.808-1.866-0.217-5.353
			c0.589-3.49,1.607-4.148,0.795-5.588c-1.848-3.275,1.68-5.324,3.085-7.595c1.412-2.274-2.098-0.998,0.691-5.139
			c1.527-2.269-2.258-5.074,4.827-8.661c2.552-1.292-0.323-4.286,6.562-7.047c2.848-1.142,8.186-1.99,9.009-1.86
			c0.819,0.131,1.428-4.011,0.772-5.462c-0.64-1.416,0.925-1.214,2.417,1c1.492,2.222,2.502,5.567,3.438,5.843
			C111.259,28.291,117.96,32.206,118.44,38.415z"/>
		<path d="M28.58,87.595c-1.601-0.534-3.616-0.925-5.232,0.407c-6.828,5.626,0.647,17.828-7.625,22.166
			c-0.165,0.086-0.025-0.289-0.203-0.209c2.292-2.606,2.379-4.576,1.908-7.246c0,0-1.048,9.051-10.121,10.955
			c-0.161,0.034,0.078-0.256-0.088-0.227c2.946-1.271,5.63-5.258,5.344-7.262c-1.182,4.12-7.937,7.555-12.505,6.738
			c-0.225-0.04,0.302-0.253,0.085-0.313c10.41-0.845,9.376-14.236,13.942-22.538c4.798-8.718,10.842-7.241,14.458-5.67
			C27.974,86.043,28.634,88.022,28.58,87.595z"/>
		<path d="M121.357,88.988c-0.33-0.284-0.887-0.612-1.583-0.964c-4.807,1.356-5.301,7.225-4.012,6.241
			c1.14,0.34,1.979,1.487,1.975,1.968c-0.012,1.277-3.121,4.069-4.626,5.722c-2.978,3.268-6.138,6.838-4.547,6.986
			c-1.081,0.154-2.348-0.173-3.233-0.221c-0.853-0.047-1.415,0.297-1.834,1.051c-0.418,0.752-1.982,4.168-2.317,5.173
			c-0.335,1.004-0.456,3.099,0.835,2.475c1.14-0.551,6.502-2.608,7.063-4.235c1.234-0.682,3.271-0.641,4.021-1.641
			c1.498-1.998,2.673-4.301,4.264-7.48c1.59-3.181,3.68-4.1,5.438-5.774c1.757-1.673,1.255-3.849,1.088-5.772
			C123.721,90.59,122.764,90.193,121.357,88.988z"/>
		<path d="M66.878,100.792c-4.587,1.829-7.909,3.187-12.423,6.771c-4.014,3.188-4.388,3.41-5.714,4.285
			c-1.638,1.08,10.496,8.186,11.147,9.151c0.645,0.97,0.571,6.285,0.093,7.125c-0.477,0.838-1.354,0.995-1.354,0.995
			s-1.832,3.305-2.346,3.108c-1.586-0.605-3.482-4.786-3.493-5.762c-0.016-0.977,1.877-1.69,1.877-1.69s1.062-1.032,0.463-2.049
			c-0.602-1.02-4.328-3.094-7.865-4.332c-4.861-1.703-6.505-2.64-6.952-3.921c-0.268-0.77-0.879-1.331-0.537-2.871
			c1.226-5.519-0.211-5.012-1.595-6.263c-1.384-1.255,4.06-1.082,1.59-3.099"/>
		<path fill="#ED1C24" d="M112.769,37.637c-0.228,1.031-0.344,2.292-0.228,3.896c-0.917-0.344-3.206-3.531-3.623-5.447
			C110.418,37.336,112.997,36.606,112.769,37.637z"/>
	</g>
	<g>
		<g>
			<g>
				<path d="M73.548,24.501c-0.397,0.487-1.785,1.479-3.405,3.531c-2.171,2.752,0.089,6.339,0.089,6.339s0.215-1.197,2.989-3.917
					c2.134-2.095,1.233-4.555,0.52-5.374C73.561,24.866,73.701,24.319,73.548,24.501z"/>
				<path d="M73.548,31.501c-0.397,0.487-1.785,1.479-3.405,3.531c-2.171,2.752,0.089,6.339,0.089,6.339s0.215-1.197,2.989-3.917
					c2.134-2.095,1.233-4.555,0.52-5.374C73.561,31.866,73.701,31.319,73.548,31.501z"/>
				<path d="M73.548,38.501c-0.397,0.487-1.785,1.479-3.405,3.531c-2.171,2.752,0.089,6.339,0.089,6.339s0.215-1.197,2.989-3.917
					c2.134-2.095,1.233-4.555,0.52-5.374C73.561,38.866,73.701,38.319,73.548,38.501z"/>
				<path d="M73.548,45.501c-0.397,0.487-1.785,1.479-3.405,3.531c-2.171,2.752,0.089,6.339,0.089,6.339s0.215-1.197,2.989-3.917
					c2.134-2.095,1.233-4.555,0.52-5.374C73.561,45.866,73.701,45.319,73.548,45.501z"/>
				<path d="M73.548,52.501c-0.397,0.487-1.785,1.479-3.405,3.531c-2.171,2.752,0.089,6.339,0.089,6.339s0.215-1.197,2.989-3.917
					c2.134-2.095,1.233-4.555,0.52-5.374C73.561,52.866,73.701,52.319,73.548,52.501z"/>
				<path d="M73.548,59.501c-0.397,0.487-1.785,1.479-3.405,3.531c-2.171,2.752,0.089,6.339,0.089,6.339s0.215-1.197,2.989-3.917
					c2.134-2.095,1.233-4.555,0.52-5.374C73.561,59.866,73.701,59.319,73.548,59.501z"/>
				<path d="M73.548,66.501c-0.397,0.487-1.785,1.479-3.405,3.531c-2.171,2.752,0.089,6.339,0.089,6.339s0.215-1.197,2.989-3.917
					c2.134-2.095,1.233-4.555,0.52-5.374C73.561,66.866,73.701,66.319,73.548,66.501z"/>
				<path d="M73.548,73.501c-0.397,0.487-1.785,1.479-3.405,3.531c-2.171,2.752,0.089,6.339,0.089,6.339s0.215-1.197,2.989-3.918
					c2.134-2.094,1.233-4.554,0.52-5.374C73.561,73.866,73.701,73.319,73.548,73.501z"/>
				<path d="M73.548,80.502c-0.397,0.486-1.785,1.479-3.405,3.53c-2.171,2.752,0.089,6.339,0.089,6.339s0.215-1.197,2.989-3.918
					c2.134-2.094,1.233-4.555,0.52-5.373C73.561,80.865,73.701,80.319,73.548,80.502z"/>
				<path d="M73.548,87.502c-0.397,0.486-1.785,1.479-3.405,3.53c-2.171,2.752,0.089,6.339,0.089,6.339s0.215-1.197,2.989-3.918
					c2.134-2.094,1.233-4.555,0.52-5.373C73.561,87.865,73.701,87.319,73.548,87.502z"/>
				<path d="M73.548,94.502c-0.397,0.486-1.785,1.479-3.405,3.53c-2.171,2.752,0.089,6.339,0.089,6.339s0.215-1.197,2.989-3.918
					c2.134-2.094,1.233-4.555,0.52-5.373C73.561,94.865,73.701,94.319,73.548,94.502z"/>
				<path d="M73.548,101.502c-0.397,0.486-1.785,1.479-3.405,3.53c-2.171,2.752,0.089,6.339,0.089,6.339s0.215-1.197,2.989-3.918
					c2.134-2.094,1.233-4.555,0.52-5.373C73.561,101.865,73.701,101.319,73.548,101.502z"/>
				<path d="M73.548,108.502c-0.397,0.486-1.785,1.479-3.405,3.53c-2.171,2.752,0.089,6.339,0.089,6.339s0.215-1.197,2.989-3.918
					c2.134-2.094,1.233-4.555,0.52-5.373C73.561,108.865,73.701,108.319,73.548,108.502z"/>
				<path d="M73.548,115.502c-0.397,0.486-1.785,1.479-3.405,3.53c-2.171,2.752,0.089,6.339,0.089,6.339s0.215-1.197,2.989-3.918
					c2.134-2.094,1.233-4.555,0.52-5.373C73.561,115.865,73.701,115.319,73.548,115.502z"/>
				<path d="M73.548,122.502c-0.397,0.486-1.785,1.479-3.405,3.53c-2.171,2.752,0.089,6.339,0.089,6.339s0.215-1.197,2.989-3.918
					c2.134-2.094,1.233-4.555,0.52-5.373C73.561,122.865,73.701,122.319,73.548,122.502z"/>
				<path d="M73.548,129.502c-0.397,0.486-1.785,1.479-3.405,3.53c-2.171,2.752,0.089,6.339,0.089,6.339s0.215-1.197,2.989-3.918
					c2.134-2.094,1.233-4.555,0.52-5.373C73.561,129.865,73.701,129.319,73.548,129.502z"/>
				<path d="M73.548,136.502c-0.397,0.486-1.785,1.479-3.405,3.53c-2.171,2.752,0.089,6.339,0.089,6.339s0.215-1.197,2.989-3.918
					c2.134-2.094,1.233-4.555,0.52-5.373C73.561,136.865,73.701,136.319,73.548,136.502z"/>
				<path d="M73.548,143.502c-0.397,0.486-1.785,1.479-3.405,3.53c-2.171,2.752,0.089,6.339,0.089,6.339s0.215-1.197,2.989-3.918
					c2.134-2.094,1.233-4.555,0.52-5.373C73.561,143.865,73.701,143.319,73.548,143.502z"/>
				<path d="M73.548,150.502c-0.397,0.486-1.785,1.479-3.405,3.53c-2.171,2.752,0.089,6.339,0.089,6.339s0.215-1.197,2.989-3.918
					c2.134-2.094,1.233-4.555,0.52-5.373C73.561,150.865,73.701,150.319,73.548,150.502z"/>
				<path d="M73.548,17.501c-0.397,0.487-1.785,1.479-3.405,3.531c-2.171,2.752,0.089,6.339,0.089,6.339s0.215-1.197,2.989-3.917
					c2.134-2.095,1.233-4.555,0.52-5.374C73.561,17.866,73.701,17.319,73.548,17.501z"/>
				<path d="M73.548,10.501c-0.397,0.487-1.785,1.479-3.405,3.531c-2.171,2.752,0.089,6.339,0.089,6.339s0.215-1.197,2.989-3.917
					c2.134-2.095,1.233-4.555,0.52-5.374C73.561,10.866,73.701,10.319,73.548,10.501z"/>
			</g>
		</g>
		<path d="M75.885,3.936c0,2.174-1.759,3.93-3.931,3.93c-2.174,0-3.936-1.756-3.936-3.93C68.018,1.759,69.78,0,71.954,0
			C74.126,0,75.885,1.759,75.885,3.936z"/>
	</g>
</g>
</svg>
